<mxfile host="app.diagrams.net" modified="2021-03-28T14:46:30.172Z" agent="5.0 (Windows NT 10.0; Win64; x64) AppleWebKit/537.36 (KHTML, like Gecko) Chrome/89.0.4389.90 Safari/537.36 Edg/89.0.774.63" etag="YDdFr6osNyzJqeRX8YQ9" version="14.5.1" type="github">
  <diagram id="wg3rc7_lctTEKDMhB7bx" name="Page-1">
    <mxGraphModel dx="3110" dy="418" grid="0" gridSize="10" guides="1" tooltips="1" connect="1" arrows="1" fold="1" page="1" pageScale="1" pageWidth="2339" pageHeight="3300" math="0" shadow="0">
      <root>
        <mxCell id="0" />
        <mxCell id="1" parent="0" />
        <mxCell id="RIRY6-1L_K40St2op9BD-2" value="" style="rounded=1;whiteSpace=wrap;html=1;dashed=1;fillColor=#f5f5f5;strokeColor=#666666;fontColor=#333333;" vertex="1" parent="1">
          <mxGeometry x="510" y="300" width="380" height="230" as="geometry" />
        </mxCell>
        <mxCell id="RIRY6-1L_K40St2op9BD-6" value="" style="rounded=1;whiteSpace=wrap;html=1;fillColor=#f5f5f5;strokeColor=#666666;fontColor=#333333;" vertex="1" parent="1">
          <mxGeometry x="540" y="350" width="160" height="130" as="geometry" />
        </mxCell>
        <mxCell id="RIRY6-1L_K40St2op9BD-1" value="" style="shape=image;verticalLabelPosition=bottom;labelBackgroundColor=#ffffff;verticalAlign=top;aspect=fixed;imageAspect=0;image=data:image/png,iVBORw0KGgoAAAANSUhEUgAAAT8AAADzCAYAAADw+xHQAAAgAElEQVR4AeydB1xVV77v77zPvfPuvW/m3plJ3rvTMpNkJjOZZNK7MVETE3vvJTEW7F3BBhZEUWPXKDYEFBSlFynSe++9w6FIE+mc+n2ffSiCHgSkyMHN5/P/nF1W/a21vqy119pr/wvin6iAqICowHOowL88h3kWsywqICogKsAzh1/j/Xz8na9zeP8+jA6fws47itI6hVg0ogKiAqIC/arAM4WfqjGLw7Pe5b//4z/53ct/4fcv/IJ/+4//yzgDd2pV/Zrv5ypwpVJJaWkZeXn55Io2ZDUoLi5BKpU9V3W7N5l9pvCTpdkz+6vPmaVrQlWDHEnkbT76/b/x339ZRZK8N9kS/bYqICkswvKGNWd+MhHtOdDgqvl10jMyW4tf/H2CAs8UfqDiQX4szjcuY6i3mgmf/5Nf/vxn/PIP3xMr/gN7QrF171ZGRiZXTM2xd3QmIjKalNR00YawBrFxCbjcceecyUWiomOQK8THR09qKc8UftJcF6a9/Sd++X9+yZ/f/pxp06bwp1//G7/84yIRfk8qtW7cE4a65hbX8fH1R+j9FZfcE+050KCwqJjIqGgum5pTVl7ejZry/Dp5hvBTEnFiHv/rZz9n1Jpz1MhUFIRZ89Effs4vXxLh19sqmZCYhPk1K7Kyc0Xo9SP0iopLyM/LpSQ/jaL8zEGhtZAmGzsHAgKDe1uNhrT/Zwq/NPNV/O+f/S/++N4YDAz3snDMu/zi337G//mf6YTUiDMeval5Lq5u2Dk4IfQExF5f//R6MzLSyY5yQRJyhroIQyoDD5IYGzUo9PYLCMT6lk1vqtCQ9/sM4QeqpmwOTXqFn//sZ/zsf/2ckfPWM+2z1/j5L1/GLLJmyIvfnxm0d3DCwckFoRfQHn5ZmRnEBjqT4G/XLYv1siUq4E633D4WZoAd4X5uhHo7EeHv3rMwAprTF+tnR3RkaIc8tM9PT4+FfwZRIX5E+di0WaS3DZE+D02413re3l3rcZifG4neFjSE70UWY4AifAdNXpsoslxGrtt2UqJ8+yy9Pc1fq/ug4FD1RFd/1jFtD/uZwk8QT6VoJC8tkaSccsQJ3r6rTp3BL9HlCLIUQ+SZB1BkPNnkmQeRJ+9rbuAZB7t0rym8au9NyPy3Uu+7GVmaUUsYwm83LH0/8nQjakMNiA/z6zVQhH8ESb7WSCN3ocg2brGDKHMOosjuaGp9sg60XRfOZWmGSOMMkEfuQBG5E2mQLlXOa0i/sgjP/VNwMZxKXZAeFe47SY/yeewfTyuYBuJXhF/XbemZw6/rJIounkaBzuDnfHItqaaLSDdf3In9QLp5qy0mxfR7Ei4saHHber31t7Mwmq+nXF1EvMkC5H5bKLu9nOSri0i3EO61+n/0V3N4kT8tIMTLudfwEyZ+/K2OkG3+A6UOayl1WNNsji2/Dmsod1pLo89m5NG71Nbgs5kG3y1II3cgj96JImIHMt/NlN5eTuSZudzaOQGTnd9x/Ywh13dMIu7cPKrtVvDgzjbig92eGQBF+HXdakT4da2RVrroDH6Bvne5dmIn5if1sDix7YlmfnIbpoc2YnZ0G+Ynunb/aHhmx7bidWQ2Up/NlNuv5saR1Vic2obFySeYOh4hLj11nOZHdbG+cpICSWGv4Sf0uAK9PTA3mIv1ntnc3D1Lbda7ZyGYzZ4Z6l6cPGI7CnVv8ACyUD2qvTYiD99Bg+cGim/oEHRsphp0P21fgLPtTfILJOTlF3DjvDE3tk8g9uxcahxWUe2mS2qkT5+ku6e9RRF+XTdbEX5da6SVLjqDX08bUW/du51eS+PdjdS4bSYt5M4zAcGjeUhJSSUyIoKI8PA2iwwPx8P6PPnXlqII1kORsk9t8hA9im8tJ8tsEe5GUzHdOYsbZ/fg5+FEbm5eh/xkZ+dgfekYVjsmE3t2HtX2Kylz3UlCqNeA9wBF+HXdbEX4da2RVroYLPBz/kmPGufV1HtuIMP/+oBD4FHwPencwfQosWfmUee8BkXQdhRBeij8tiCP2km1/2YirXaSHBeN5Am9UGFobWd+BqttE4k5M5ca+1XUu20myM2SYI+bBLlb9tiCPW6QGBfZAbRPyodwT4Rf181WhF/XGmmli8EAv9TkJNLtdiGP0UeRZYQ02oB4l7Pk5uT0qCF31dCf9r4wAdJqOVlZ2J3ZjpXeWKJPzyPXbDF5ZovJMVtEzZ11yIJ0kUftQBa5m2z/n8iN9yI7LRFJ4ePDcWEIbH35x7YeYK3DKmT+W1Bk7G+ZQDmAPMsIhTChknUApTDZoj4Wrhmp7wn3W90Iky2NUXuIjgjutm4i/LputiL8utZIK108a/gJS0rcLuhTd2c9ingDFNkH1L8Nd9YT7W3T7Ub8tGDrzJ8Au7hgTyoTrlGTco3qFAtqUiwojzpDiecm0uxWIXFdzz2PDZR4bETiuo4q7800BOshi9yBLFYfWZwBjVG7qQw7REmkKQnhPupnfu3jFADodP08VjsmqYfAueaLKbZdyT2HNZQ4rKbEXrA1alNfazluvt56fzX3HFZzz241WRZLuGNn1W3dRPh13WxF+HWtkVa6eNbwy8rO4ab+ZEpuLKPJexOKsB3IfDZRflOHAMsDz2zxdXRYEA/ubEIuLLXJPYQi5xDKnOZf4bijGTe7aXHXfE+4ZqxeqiMN0UMeuRN57E6qQw6Q4H8TSW4GEkmBGlIFEgl25uew2DULsz0LsNCfxXX9mT0yS/2ZWAr+jm7t0aSPCL+um60Iv6410koXzxp+uXl5HF41FjfDyeRcXYTCfwsVtivwMZ6Gw5Ujz+zZX4C3G8En5lFos7Kl99XaA3vY21L3vhzWUCz0ztQ9teYeWmtPTbhWZLuS+PMLKbBcSq3beuRBuuq1f7Vh+yiMuEhOnCeFhUVqyGdkZpGTm0d6egZpaWmkpaU/YpqutbpJU/vr6Wy3CL+um60Iv6410koXzxp+whDQzOQUx3S+IPzkbBQ+m7nvsJrza78mLDiw28O39kPJvjgWoHzp6C4ub/4W041fN9umr7myaTRXN43GdLNg37TZ1c3fcnWTYN88tM3fcHXreI6tmcDF9V9xx3AyyRcWct9upXoNoCJ5D40Ru4j0f3az2yL8um62Ivy61kgrXQwG+AnP18zOHMTz0GzkdzfS4L6eWxePPDPwCfAUnkWmxwSRd1voia4k8/Ii7uyfitn+ZQQH+pOSmtoty8zMIi8/HzcnWy4f3sx5vdlYbZ9AyLGZ3LNdicRqGXmuW8gKtVH3APsC3D0JQ4Rf181WhF/XGmmli8EAP6Gxpqam4nlqFU3CjKnXJu5c3vfM4FdUVExWpCcVzrpIXdeSb7EYL+Np3DqpS3JS4lOnSxiSxkSGc8fWgp/2rMRy2wSizs5HeDuk3mMrGT4WT1we0xOoddetCL+um60Iv6410koXgwV+wtsPjqc2UuO4GrnvZqLNNj2TyQ6hx5cY4sEDl83I3NaSY7YYN6NpmB9aq37+1l2odOVO6O3am57Acc8kEs7Np8ZuJXLPDWT5XUMikTw1YLuK99H7Ivy6brYi/LrWSCtdPAq/rMx0ChK9kSR79sgEP7kJPj3y0z6OgkR3giz1qBYWDgfqUnhrFfkJbp2Hl+SJpAvLSfAjP795RvXRRq/pXFh4nB5oywOXjdQ7rSbT9DtcjGZif8kYYfiqyU9vrqWlpmJxUh/rHeOIU7/psYraO5vJ9Lveoxnb3qRBhF/XzVaEX9caaaWL9vDLLyggx/8STakHkOYcRprdDRPc5RyhKdmIpsT93fOjMdxDSLONkcfuQpG6D1nkdpqyjNVhdysdbWEeoim72RqSjCj0PtVtaCUlJpBmpUuD0yrSLi7EYfcEbM1OkpfX8fW03sDmUb/Cq29mp424uWOc+k2PB7YraHTbRIrHZYQlMI+67+tzEX5dN1sRfl1rpJUu2sMvOyuTcIsdVHlspMZflxq/7luV2wbuu67rkZ/HwvfdSoXTaqrcN1But4Ian63N4flupabNdFuOt1Djq8la3PpspcptPXEXFncbIFlZWdif2kLAsTk47J+N9aUTA7K1vxCvxbFdWO8YT8yZeQgAbHDbSG7QDcpyYyjPb7XYdset11p/O7sXS0FWUqdLhkT4dd1sRfh1rZFWumgPP+FdVM/bl7DZPRkHg4nNpj8RhyeZ2t0EbulP4pbBlO75aQ2vJQ57g4nYG0zAwWACN3fPwMZgCtf1p2P3aBoEd/pdmzq9BhOx3TcbT5sr3Yaf0KtKjI8l0O0WEQF3KSwauG+apKenY/nTQSy3jyf6zFyqbJfT5LEZaZywp6Jxs2Udenjceq3lV9H+XoYx8haTZRjzIOoQiZGalw2J8Ou62Yrw61ojrXTRHn59PaQSw+v5tvhJiYmY6P+A096JhB6bTeTJOSSbLCTJZKF6jaDwq8mE9YMPry8gyaTZBL/hJ+fgestM4z8BEX5dN1sRfl1rpJUuRPj1HFD9DfX4uDjcr5/E68YpPK8dw8fyqNp8W35bz9v/dnrP6hi+DuadTqCI8Ou62Yrw61ojrXTRE/gJyzNSU5II83EhNjxoQJ6H9TdonvfwRfh13WxF+HWt0aB2Ia+voV6SjlIu7ZDO7sJPAF+Svx0P/PWRp+xFlrCHTLfDZKU9/aLf5x08gyH/Ivw6NAeNJyL8NMqiPRfrCtIIX/M52RZGNJYXtSW8u/ALDfAh7+YaFJHbm/eVS9+PMliXVKej5AySffcGA0y0LQ0i/NqaQqcHQxd+KhU8B1aXn0bQwtfVFrLkXUp8b6NSyOgu/KxO7yXXbBEyn80oYw1QCB/uubuJONPVJMSEa3yYrm0geB7Tq4af1c3nog102s47xV7zjSEFP5VSQX1BOiU+1uTdOkGO5aEhb+kmem3wEyAYvOhNkg4vxcXkR43f7X0UBOeN9+BpNIV8ix944LiG+/aryL66CEfj74iNDBPhVzL4Jk4eLUNN55FeLrjs0Rny9b+zNp5nfZwij2vU5aWgUmj+KO6QgZ+8torMS7uIXD+SyA2jSDm+hgyT7UPeUo6t6gA/AYCxu6bhZPpTt+B3x9mR0ytH4LpvEsFHZxJ4ZAaOBuMxO7gGYZGupoYlXhv8QIzycuXOzu/IMNn2/Nl5PVJPrSdi3ZdErBtB6plNKBrrHusHDgn4yaorSTmxhqitYynxuqExo4/lfIhcEJ75qXt837+hBn/e7ZMIkyDdHfYKILt01IDTq0dhtnk0VzZ9zZkt0wgJ1Lx4VgTf4AefUEbiMz9QKZXc87classYEg/+QFPlvQ6tXuvhJzT01JPriNk+mdqcxA6Zex5OBPgFL36bHIuDCM//Wv96Ar/I0CDOb53KzW1jETbv9L377DbhFOHaN3AV4dfaEqA2J4k4gxlkm+9vfgbackvr4Xc/PpCw5R9Rm53wMLfP0ZGs5j5NFcUdClXIfk/gFxUaxHWD2QT+OAOHvVOIDtP8lTBhWUx8TARJLsfI9z1OVnqyOCwepM8ERfh1hMCDtEjCVn6GQtrQdkO74adSkXPtIEmHlrRlSDxoVqAn8IsI8Vd/VEeAn/2eKcRGdZzoyM5MQ5LkR5bfWerDDJBH7KDOayNxdobkpkQ8k/35xB7ik3uIIvw6kkBWXUH8vnkUulxpu6HV8FOplCQc+J57frZtGRIPmhXoCfzCg3y5vms6AT/OwG7PNJLiotU9OmHCI9bXloqwo+pPNSrCt9NwdyN5FovxOTyNe3c3UnV3N1lxAWIPcJD1AEX4dSSBUiYl7actpJ/b2nZDu+GnVKrH8pUxvm0ZEg+aFegJ/CKC/bEymEnAjzOx2T2VxMgAkoJsKfffiyxmF9KwbdS6ryPr6iLcDs7k8o7ZmOpOIu3yd9Q6rKbMWY+0uHCxBziIACjCryMJhOUu6SbbSDmxtu2G1sMvVn8692P92jIkHjQr0BP4RQb5cNNguvqZn7D3nN2BhTzw3Yw8WJcq5zUkmizAfs9krh/egJezNcnJybjaXsfKYCpxZ+dSbb+K+666pEe4D+h2UeLQt/Ohrwi/jiQQ4ddRjyF91hP4CXvcWetPU/f8bmwbw+2d44g4M5vYs3O5rjcWk70riAgNRlJYSHFJiXqIK0x+2FhdxWzrt0SfmUOd4yoeuGwlMdxXHAIPgh6gCL+OzVuEX0c9hvRZT+AX6nsHa/3J3Nk3GRv98Xidmk3WreW4n1qMg9UVsp/wjq+rjdADnEXUqdk8sF3JfefNZEZ6DPjXysReYMdeoAi/js1bhF9HPYb0WU/gF+LtzG39yVze8BV+h6dT47oORYge0kh9KsMPIQk1JS4yWOOW6cIu0V7ONphuHkvkydlU2a6k3mM7mWEu/d4DFHqi0RFBJIQHkxgeotnCQoiNCCYyNIDE+Jjn5rmkCL+OzVuEX0c9hvRZT+AXfNeR28J29TvGcW7tKJz2TSbl4gKqHFfRFLgVefRO5FH65PseJTXKm4K8rMc+xO3t6YbFrpmEn5hNlc1y6u5sIcrrFnEBNsQH3u6xxQY7UpCb2SlAhWF3ToQTTUn7UeYfRlVw5DETrivyj6BINVRv2CCNMiDb5xQp0f4U5j+eh6fpPQoAFsLKTAonJy2GpBh/Ep/Gov3JSA5Th6HRf7Q/iRosKdafvOy0x/4xifDr2LxF+HXUY0if9Qh+nvbYGEwi4MgMLAzm4WBxGlPD5VjtmEDI8VlIrJZR77kRRage8kh9JAGHKIyyIjk6sMNOwn7uTpjtmknI8ZmU39ZBdndDM3gyjVC0twwjFG22H0VGi6UbIVfbfvWX3goDzpKbm6sRgIWFRQRaHqTMeQ3V3luo8d76mFV7b1XfK3deS5H1Muo91qt7tMqInZSHGFMWa0V6jA/ZT/EOc25eHimRfhRFXaMi5CCKSGFWfBeqzAMos4xRdWoHUWU9bsrMgyjT9iOL2o0y48DjbjIPotJgyoyDVIQdJjcjqYNOIvw6Nm8Rfh31GNJnPYFfkIcdtgYTCfhxOrePrCAnO4u8/HyC/Hw4tXst59aNVm98kCEsbRG+vxukizx6F03Re6kMPaaGoNBrEnpjwQF+nN88kaCjM0g2mU/+9aVIbixrMeG45dxqmRqqEqulPDTh2lIKrJaSb7mUkKvbyMrO7tCoW3tnQlx37c25saP5A0kOuyfyuE3A0WACVnrfcnH9KFz2TSb1wgKq7Vej8N+KMnInspjdVIcdJNLDgoyMdI1xtcbZmsfoQHdKAw7TFLMbZfQu9feIa5xWUWylQ53HJurvbn7EhGsdreHuJtTmuYkGz03Ue2yi1m0DFbYrqPXYSL1w7VETwn7MNiK5uYL4sI4TTSL8OjZvEX4d9RjSZz2Bn5+LNfa7BfjN4NaRdeTmPOxtqYEW6M9NkwOYGizE1mAy0afnUHJLh0afTciT91LksYv81LC2XmB4cABOF/fjYnoYZ5NduD6FuV02JDzI74kwEj5GHhTgi7uLPR4aTLgumL+vF+6uTpge3c6FHfOw2j6ekGMzKbi2mFq39ciD9VBG7aQudA+ZAZeQpASQEx9Aqu8VkjyPkOJ3ifzEILKjnCj2O4giaifK8O00+Wzm3u3laj1uG0zBXH8Ot/fNxtZwzlOZndF8buyb32O/Dqe3kpWR1kErEX4dm7cIv456DOmz7sLPz8sDC8OlOLbC78cNGoeaAgQTE+Lxcr6Fyf51mG4ZS+DRGRRY65B+fSk1EfvIDrFtm+UV3As9pcKi4qeyVv/te129PS6QFBIfG42X0y1MjNZjsnEMznsmEnduHmU2K2jy3oTwFktVwHbKnbegiDNAlWeMMtWQOt8d1PrqogzdRoPnevKvL8b/8HTMto7l8sEN+LrZERMZRnRY4FNbbEQIsVHhPfaflposPvProjWL8OtCoKF0uyv4FRUVE+Hrgvm25h7f3QNTcTeajvu14y3r+TounWgPHnVvMCiAS8ZbMdeboIZfo/t6Gty2kBRg16X/9mE9y+PwsDBMjuzl5PpJmOuOwe/wNPLMFxN9bh51rmtRRe9CmWGEKmkvcv+tFFktJfPSd7gZTeHilgmcM1xPUIDfY+B5lnlqjVvs+XVszSL8OuoxpM+eBD+hB5Tqf4sSuy3q9XkRJ2bjaDgdZ0sT0jMyOgyfWhtTZ7/2185hu2ca8T/No9puBQ13NpHhe43cJ6wN7CysZ3FdAHlcXCyuNhbcOLSCmEvfUeK6BnmILgrfzSjDdqAM0FU/16v120zajWXcObsGH3enQb1sRoRfx+Ytwq+jHkP6rDP45eblE+tykcY7G6l3XkPcT3OxN5yB223Tx5avdAdG+fkFWF8+zg29b4k9O4cauxU0uW8m5e7VQdkjejRPAvzio8PJ9z9HfbgB8phdqMJ3IPXaRKHlEspu6iC5toQah9Uo/FomSaJ30xh1gPi7ZiQlxA3KfIrw69i8Rfh11GNIn2mCX3ZWJhmeF2i4s4E6h1UknZ+P3f75eNiYUSAp6lGPrz1EhJ7kjUunuKk/nejTwjq/FTTd2UiKlxl5OZpna9v7H+hjAXi5mankJviQ6XOSpnB9VMJaxmBdalzXqj/o5G08BattY/A2noqd/nisd4wl/ORsCq2WUuu2Tj1JIvhpDN9Nlu9p8hK8yctMGjTfPBbh17F5i/DrqMeQPnsUfimJceTfOUyj63oe2K5Qz1DeOvAD4QFefTJ8E4DibnMNy11TiTg5i0phnZ/7BrLvmpCXm/PUYO1LMAppTImPoiDUksqwH5EKa+oidiDz28J9u5UknJ+P4+7xmGyezIntSzi8dATn14zkxMpRnDXcyNldi7mw4Wv1sh/BrbAsReq9ST3zK48yoCr8EFWxV0kIdCQl+BZpIda9sqRQV1KDb/c4jIwIJ9zd3bG8YT2k63hPMifCrydqabnb9vDLTE0iy94QmccGKm8vJ/TEbKwMvyMyLKTPoWRjZYaZ7njCjs/ivs0KZG7riXM8RUF+PhKJBImk4ClNgjBJ8xCGJeTnZpKaEEFKfNgTLSMlhsy0BFI8z9IUvhtV7G4UAvS8NlFhrUPkqdnc3D6OUxsmY3HuKFlZ2eqhbHRUNE6ODsTExKjjFZbW+Pl4c2rPOk6s/obr28aqlwcVWPxAg2vz+kdlxn5USXtQZh1EKWl96+QwyoLDKCWHUUkeHgvnj5ngTrC8wyiS9qAQwsk/pDZVgTHKfGOUrb95xqjyO5oyzxhFjjHhtnu5dt1Sy2tx3yVfhF/faTnoQxLgZ+/oTHKEH/kOu5C6rqP0xlICjs7G/rQusdGx7UDS+czuQ9h0342n022u755L8LGZlN5chvTOOtIdD5AZ9BOZoefIDPmpx5YVeo68GFtyc/PU6U6IiaA8YH/zWw/ZB1F1agdQpu5HHrMHZepe9RsedXfWkWuxGP8j07HQG4/pgdU437hMfFxst57fCRAMCwnCzvwsF/et5MKm8TjvmUCSyXxqPDfwwG0dNd6bqQ/QpT5Ar9n8W37V14Trj5i/Lg0tVu+nS53/VqrurKNaWBztt5UGtenS4NdsgpuH14X7rde3Uuu7mYgrq7G6bj7o6+lAJVCE30ApPQjiEeB37dp1cuwNkN5Zi+T6YrwPTOHWGX0y0jsuiH0awD3Jj7C2z+/uHUw2jSXoxxlqAMrvrkeRuKf5tbZ0IxQdbD+K9OZX3ISekzK91QxRphvSek0avoPUAHs1/ByvnadCeFMjbBeKcH2UnZgiQh950DYaPTci9dtKpukiXPdNxGT9N5w32kxESAA5Oc09vSflSdM9YRidnZ2t3vb/4rE9nFw7Rj0kFt40uWM4Gc8DU5/SpuB5YAoOBhNwNZyMxwHhvLthTcFj/xQu7V+Lhdjza2uJIvzapBj6BwL8LCyu4Xl2A8kXFnDn4GxsLh9u6zlpasx9fS3Azxfz3fPVO8Ukmywk0+wHci2X9cCWkmu5lDzLZWpLvLyEcG9HNfyENzvs9s/B59A0fA9Nx+8JdvfgdNyMpuFpPB0zg7lcPbaD4ED/PnnW2V6zxMQknG5b4enqzB27m7jcvobL7etPZa42lni4OuJie6Nn/m2u4+Jwi7tePuIzv3bNXIRfOzGG+qEw5BUsKsSPO9dOEehu1/b6WfsG29/HUWFBOJmfxNPaBIcrR3C4ZNyp2T/hntOVw4R42JJfIFHDT3j+FxXiS4S3PZFdWISPo3pBd4SPE3HREYNmRrY/tRdnezu2cBF+HfUY0md33DywtXd8Lhp6f0JEW8P29Q/glo3dkK7jPcmcCL+eqKXlbnNycjE1syA9o/M98bS1YYvpfvLkk/DM1ermLaKiY7S8Fvdd8kX49Z2Wgz4kpVKF9S1b9X9/oTGIwHgyMIaKPkJZO7vcwczCkvtVVYO+ng5UAkX4DZTSgySekpJ7XLe6iZnFdQKDQ0hISiZRtCGrQXhEFDesb3PpihlpaemoVKpBUhOffTJE+D37MhjwFJSXVxARFc1tG3vMr1mqewRCr0C0oaeBAL6g4BD1YnARfB2bmgi/jnqIZ6ICogLPiQIi/J6Tgh7s2VQp5TQ2NtLQ0EBjYxMyRX8Mz1QoZFJkiu6rIZdKUSj7Iy3dT4Posn8UEOHXP7qKofZQgQx/U8Z88jZvvfWW2t55/xMWbD1JRnlDD0N6gnNlFTcNl7POrvoJjuQku1/CJ6YIaOLougW4JRQ/wb14S1sVEOGnrSU3xNKd4HKYf4zeQGp2NtnZWaTH+7Fp0vtMNXKhud+lpLHmPmVlFdQ1yZtzr1TQ2CBFJmugsryC6saHXTpZUwPylt6jUMkbGqWoFBX8tOIbJl253+JfRs39ckrLyqlpbA5T0SRh51cvYWyTiEylIMrnDnnldWr3Slkj98tLqaiqQd7SGxR6klK5ksba+5RXVNH0MAlDrISGXnZE+A29MtXKHAnwe2PCbtr388Ktt/De9MNIlTKS7pryw4ypTJ06lXkr9xFULEUhCWPTekP2G+gwY/JEpqO2ThYAACAASURBVH63Fe/USlQ0YnVwPZ7xJWotKpJ92GBgSqn8IfyUtYVYHd7MzOkzmT5lEpPmb+BuegWhpnq88T//ydsjluNV+QAz4+0EZZQjqy/CdN8qpk6fztRpc9hn7o9UJSPM/hxGxw+zasFMJk2YzJLdNylqEofJ2lAJRfhpQyk9B2l8HH51nNMZxujtdjRUJDJn2Ecc8c1DXlfChVWj+N3oH8lPtOPN3/4XY7fepryxEsd1H/DVkuOUN9WgP/EfXPDKVCtX6H+VN77cQLbsIfzS3E/zxqdLiK1RoGjIY/+IXzN9nyt19QXsHPUSB27FI1PVs2XyJ9wMyyPx/HQ+mrqNvJomSuJsGfXGh/wYX4+d8Vx+9ep0vCWN1CRb8PYvXuRc0JOG1c9BYWpJFkX4aUlBDfVkCvD766tvMWPWLGbNmsW0SeOYs3Iv4flVlMccZsy07ZTVNY8ppUlXeOOF97Bxus2bL4/BobS5p9VU7sTkbxeQea+sS/gppdUkRQRx19UBS9MzLP30RSbo3aJWUcqeb/7EUed0VDQ0wy80hsNjfs92i0jUKVBUcmXlKN7b5oWd8XyG63mhFApInsyqv/2Kgy4FLUP1oV5q2p0/EX7aXX5DJvXqZ37fbCK7sLDluyFl1LY82yvx38G4+Qe439jy9E9iw2e/+QvXrK355xvfESxtlkFaHcKMsbNILyppht/dDPWNAj/Tx3p+BWE3GTfsM6YvWY/hsfMYT3+JCbq3qNEEv5Agdgz7LQfsUpuhpqrFRnccf1lhi53xAsbsj2i+Lk9j/Ru/4oBzvgg/LaiZIvy0oJCehyQ+Pux9mOsHeTcZ9833xBRUo1A0kXV7G7//8zR8/W148/fvcjKiHKmskYKgfYybtgXJg1qMpv6DgzYxqFRyQq8b8KeP13QY9rqdXsTnKy1pUqpofJClHvaO23KDamU5+755iSOOaQ97fmEZ3NR5k++NbKiWKWm6n8y2SR8zzSRFDb+xRiL8HpaW9hyJ8NOeshrSKX0S/BRN9zHduYAvJ8xj1colfDNyDNss46lJsuPN373K8CkzWbp0IV9/8jmH7WJpUirxPfUDn42cwLp1K/h+6tf89uONHeCX6nmKTz8YweI161i2aCHfjX2TUYtPUSprxOyH1xk+cT2eJZUtz/zyuZ9kw4Lxo5mns4YlcyYxZoEB8VWNIvy0uFaK8NPiwhtKSVcqZDQ2yTrNknD/fm4s/kERFFXWIaxikSXb8eZLY7iZIyEiNIrC6ib1dSEQlaKJwrRovIOSud/QREOjDBUq5NImmuQqVEoFNUUp+Hr7k1VchUzWpI5fGFhL68qIDAohr1aOrKmxZZGzClldGbGBvkQk5VMnbX7+KCx1aZKpn/gBSqSNDf20QLtTacQbT6mACL+nFE709uwVaIbfWJyqxKUlz740tC8FAwM/lQppVRl1+WnU5ib3r2UnEq03niL3a/0aT31hJoqG5sWv2lfsQyPFqgcFONt4I2mZ8BgauRJzMVAK9Cv8hMDr8lJJPb2RUJ0PCdX5gDCdD/vdQpe+1+9xhS57n7BVn5FnfYzGMgmIWwUNVJ0V4xEV6BMF+g1+KrmMEu+bhCx5l9SjOpQ4m1ARcIvKQJt+tYpAG8q8r1Hhb92v8ZT73UBy6ygJe2cTs2MyNVnxfVIgYiCiAqICA6NAv8GvJjOO0GUfqAEhzU9AVpgyBC2ZxuxoUo8tJ2zlZ8jrxJX9A1NtxVhEBXqvQL/BL+3sZlKPr0QmSR6C0OsI8po4LyLWfkGBo0nvS0QMQVRAVGBAFOgX+MmqKwhb8Qn33C53Cb6GrEgq0mOQSjoCpT4nhsq0GBr6tMeYyIP0KOoL+hjIkmTST60hfs8cFA21A1JwYiSiAqICvVOgX+BXV5BO+MpPqAy26wJ+CVjO+QP/+qu3uRkZ1eZWmhPGkTlv86//PhzPnI5QbD98rk+24dgeQwrTnwCzXD+uLh2LtXcCspyrzHvzPex8Ytriah9eb44l1j8Ss22iela7d0Ui+hYVEBUYCAX6B355KWr43Q+27wIyCVjOf5k//vYlxuyzpamll/cgzppln/2Jf//FCDyzk7ifFExZVivg4ilNCKY2N5Zsu1WMHjWPiPBIdTwNmSEkeFgTfMee/NQ4ZIVJVIadZfi//zeHbwZQlxtIyE0zClKT1O5rUgOIvmNNdIAfNQXNkK1JC+N+dhR5fraEe7lTld/stiswFt4+TozeBKSV9wai3MQ4RAVEBXqpwDOHn9WCvzNt3Cj+563FJOc1Ayjv2hKWjP+aF18YhWeGH0dnfY7OpehmkOZas3zkCNwcTzPhxf/k5z//d/440YCqGHtWjXqdV/7xFm/99Y/8/u/f4hoRyNkfhvHzn/2MX7/xFeE+p1j49gfY+8TQFGfG/Pf/zOt//yuv/v4PLNY/S21+Mva6k5j29Xu8+srf+ctLv+OjxceoeGRIrgmEIvx6WRNF76ICA6zAoIDfsm2bmfeXV/jRIRypJAyTGW9jvHMDf3hRgJ8PhuPeZu7ZlmFxjiXz3nsfZ+8wyrw2Me7bH0hPTCDDcR+rNx6kujCFugQbFr31e7477k1dwmVG/sevOeMcTVPWJSb/6TWs3T05+dX/MH7lEe5lJ1Hqe47xHw/nekgkN3Q+4J1pehTmJVNov5eXX/iA2zFd9/5E+A1wzRWjExXopQKDAn46+8/hvf49Jq89Q1nQUb7+YA7eloZdwC+cKv8tTBi7lNy0ZBqzwvC+tJ+dqxYwb/zn/OXXv2DWARcak6/y1X/8mvNuCciym+F345YJo3/1AkftmoEqzQnlx7mfs/Anf24sH8HyE5bqXmZj2AU++583uBzQ9VIdEX69rImid1GBAVZgkMDvMrWhe5j4xTQurp/AiC3WFDvsb4Pf/nFvM/tM83M9WfZVZr4j9Pw6wi/64mLeeO1dNujuxNb6HFs/e5mZncHv5jlG/vcLnHCKVUNOgN+x+Z8z/7QAv1GsPXejGX7hF/n8t29wyV+E3wDXSzE6UYF+V2DQwK++IBj9CX/j7b9+zqWQREpb4ZcZxKlZH/DR8kvcy4gg9tIPvPHqe2r4PQjexrjR35OVnIDTmk8Zv/YwdZIkspyPMOqlXzN1nwONqeZ88x//xSnH6Laen7W7G8dG/JYpa49RmBGH5O45pn36OZf9I0T49XuVEyMQFRgcCgwe+ElScN07jr+OXEulJOUh/LITybLS5fUXfsUf//ASH41fwLQRH6jhV5dixrhXfsOrY3TJtNvNJy//Dy//+SXe+vgrlnzxEh8vPk1Vnif67/yS//vGaCK8Djc/87sbTU3kFRZ98jJ/+uMf+NMfX0HH4Cz385JF+A2OeimmQlSg3xV4xvDrfA3fozOqDen+JAd7U9th6UkyFXFexAcHIitMpirBh2gvV8qyE5tnhlsXSOeGkuLvzoNHrjfmRJMR4EpWQjTSVrdP+SsRl7r0e2UVIxAV6EsF+gV+DSU5hC3/SL2RwaMQG6rn+ZZGxGyfhOxBRV+WjxiWqICoQD8p0C/wU8pkhK8ahuT2sY49sKfsVQ12YEoLEonXn0ai8Q8Igop/ogKiAoNfgX6Bn5DtAofzxO6YRH1q8BAHYDKlnubqPQoro70Hf4mLKRQVEBVQK9Bv8GuqLCFuz2yidcdSE+c9ZAFYGWRLxLovyLysL/b6xEYlKqBFCvQb/AQN6grSiN05lfDVn5N6bCV5143ItzIeEpZrvpf43TMJW/kpmZd2ibu5aFGlF5MqKiAo0K/wEyIQJgAqIjzIMjMk9fQGUk6u7XcTnr0lH13Rr/GkndlE/u1TPEgOE8EntiVRAS1UoN/hN9CaqJRKko+t4kFqxEBHLcYnKiAqoEUKDDn4lQbYE/TdG8TtniV+XU2LKqKYVFGBgVZgSMGvsVRC6PKPCFr4utry7c8NtJ5ifKICogJaosCQgZ/wtbhsc6M28AkAjNwwinpJhpYUhZhMUQFRgYFUYMjAT/gYesS6ER3gF/z9m+RYHha/qTuQNUqMS1RASxQYMvATnvWln9cl/Zyu+uNJCQe/V59nXtmNUiHTkuIQkykqICowUAoMGfi1CibM9sbqT+d+rF/rJfFXVEBUQFTgMQVE+D0miXhBVEBU4HlQQITf81DKYh5FBUQFHlNAhN9jkogXRAVEBZ4HBUT4PQ+lLOZRVEBU4DEFRPg9Jol4QVRAVOB5UECE3/NQymIeRQVEBR5TQITfY5KIF0QFRAWeBwVE+D0PpSzmUVRAVOAxBbQSfnVl6VidO4bhvn3s3btXbYdPm5JzX4m4yPmxMhYviAqICmhQQPvgJ89Cd/Tf+WLCXFasXMnKFtuy+yhpZSL8NJSxeElUQFRAgwJaBz9VuSVTPp1HWHGThuwg9vw0qiJeFBUQFXhUAa2DH4oUdKeOxz5SQk1tLbUtVlffgEIpwu/RAhbPRQVEBTQroIXwy2fPhNf589/e5dtxE5gwodnm6ugRV6wQe36ay1m8KiogKvCIAtoHP5WMqtISiouLO9i9sgqkCrHn90j5iqeiAqICnSigffBDRV64DatmfcOH773Du+99yIiJS7gelIdUJcKvk3IWL4sKiAo8ooD2wU+eju74zzC44ExSWgZpKfF4m+syauR3RBRKxWHvIwUsnooKiApoVkDr4Ke8Z8HU4YuJq1C2y1E1+2Z8hE1YSR/CT0WTrJHiigKyi9KQK+Tt4nt4WFP/gKj0II12r7LwocN2RyqVirx7mRr9CGE9qLvfzvXDQ8FfZ3Gl5sch72TH6oamOmIyQjT6zSlOfxjBI0f5pdka/URnBFP+4N4jrh+eCmnRlM747AhUqB46bHdU11iDcF+Tv+TcmHYuOx7eu1+k0Y8QzpPSKORbU1zCNalc80qCRmk9cVlhGv2lqPXXXEdqG6o1+hHiKqmUdMxQy5lQ1vmlWZ36e1Bb2am/zvKVkheHTC7V6K9R2vBUdURSlqMxjUIdKasq0RiXcDE1P16jP6EOKFXt23b7IITao7n+tHfV3WOtgx8NEeh8OZxzbinIhGGurJ7MgAtM+mIsPll1fQI/hVKOV7QT+69tZPmxyZx1MKK+qVajptnFqey8rKPR/OPdNPpRKBXYBphr9COElVqQoNGfUCk6i+snhwMIjUzTn9DAdl9drdGvte8lTV7U1xyDLTX60TddSWRaYKf+zjke1OjP2Eq304pdUJqDsdVWjf5O2uzpNK7ABA+NfgSdItICOvV3y/dyp/46++dTWlWsrhOaykCoI3WNmutIXklmp3H5xrpqTKNSqcAh+Hqn/gTYavoT/GlKn3DtrP1+quurNHlTg6qzOnLT56JGP8JFl1BrjfHturKC8NTOd1M/72Ss0Z+x5dZOAX3vfiEekXYIoO6LP+2DHwqirQ147y8v8dc33uGf/3iN3/3ur6y7EkF9H0x4CGCy9r3M98bfYOF5FqHCC+AT/hNr+hNAKUBHk0k7+S8rhCP0KjX5Ea511ssU/HXmp76prtM0KpVKahtqNPp9UkV6UhplnfQyhTQKPU1N6ewMDoIfQXfhviZ/nf3jEfwJPRlNfoRrMnnn324R8t2ZP1UnPQ/hn4/QQ9Xk70n6C3nT5Ee41lkvU8jbk/Tv8zqi6oc68oT6/+Q6ormtpRUksOLEVA7f3N4nANQa+KmUMirKy5EqmqgsziMuwJmzR405cuI8riHJFJWU0STv/YSH0F1ffmyK+j9aZ8ATKqb4JyogKjDwCsRkhKJzbBK3/U07HUV0N1VaAz9pbRa6qzeSXBzLrsmf8NFHH3Wwr6frECHp/To/U7cTCMM2EXyPVyHh+aZnlD0XnI9wym4fJ232iqZNGtju5ZzDAW74XCC3pPNnvY+X/OC6Igx99S4sVvfCe5MyrYFfl5lsGZb2dmODJmlDn3Spu0yvFjkQhmZ2geYsPjKOhQe/YuNPC9A3XcVuszWiaZMGV1ez7eISlhwZzzyjkRy03EpRRT704STCQFRr4bnlqpMzyCpK7VV02gc/ZRk+9rZIHijaZVxGsN1lkiW1fTLh0S7g5/6wQVrPRZcf1ZXNxv8qwuye+KfdCgjPVgMSPDhguQVdk0VkFaVoVYbqG2vZeXm5era4NwnXGvgpZfW4XD7ANt0lfPiXV5m/Yit6enrNtkWHz975AIfoChF+vakNGvxedD7C2tOzySxMFh8FaNBHmy8JE0mnbPey5tRM7tdUaE1WhEkuYTWGpCy3V2nWGvihkhHlcpFNaxby8euvMW7mD6xZs4bVy5cwe/4SDl52o7xJJcKvV9Who2ehci04MArfOGE5huYZuI4+BupMhVwuQyZrb3IUfZBEpaI5HOHxiVzYKaOXf0qFQr3hRi+D6TfvZVXFbDq3QL2y4Xl7zq098GstflU1N3fPZczSo1SpoCb1LgumTcfoZhT14uttrSr1+ldY7iFM/qw5NavTtWG9juQpA1A9iEJ//hzmzGlnc7/nfKTmBbzdjkZZgf2R7ZwJqCInwJJlRzzoVYiqGtwv7OeIb123kzDQDgXg3fC+wLrTsyl70Pmi5IFO10DEp33wk0aw8IN3OOeV1aKPigdx5/j6/a/xzmoUe359VGuENWjCQtXrd8/3UYh9F4yy1JEv/utFjKyjSU5ObraUVIrb1hirENY2KpWPdgW7uC7Px2ji+yy0KCHafBsvTDpLvUoIR/lIv7c5HIVw/ZEohB5jm3tlOWeXfc3EKy1v7KhUg/LRgQC9RYe+JTojpO8KSQtC0jr4CZuZThu2gOjSdhMeqlJ2Tf4Iu4jSXsFPWDgqvPYkLC593v+qaivYdnEpd8JvDzopBPh9+avfciXs8R6VorYED/MfWbtiOas26mPhk0GDMCKQluJp9iMbVq1gxRo9bvgm06AARVMNAbdOs0pnOVt272Deh6+1we83I9Zx0nAzOsvXcsTCh1IhIHkZbqY/snndKnSWLmPvOTtK62WgaCQ9yI7dG1axYuV6jE3vUtb4EH6K+nvcuXyMi44x1LaruoNBXKmsiYUHvyY0xXcwJGfA0qB18EOey5av/8naEw6UNSiQVhfj+dNKPvl0LuHFsl7BT3joq2vyA8I7rc/73/2acvQuLla/TjTYtGju+f2GnZe9CAoKUltkivCOrIIwy118OGYDblHJRLqc5OOX3+FadAVxF5bw7sglOIXEkxhkxrQxM/DKrKAoyoTRo+bgEJGA942DvP27/26D33/96hV0L98lLtCSae+8hrF9IiX26/lkxHc4hyaSGOXJ/BGjOJdUSlV2ELNGjsLQMZL4oNvMeP9NdG/FcFro+V0ux+X4cj6evI3wohp6/ySxb0tEeANFgF9IsnffBjzIQ9M++AEF4ZbMGvk+r77yZ15+5a+8NWwal4OL1JWqN+v8KqrLWHF8KjlavAC0N/VNeH0rNNmH844HOWGzmyVHxqmHvsKi70suP/KgTvPL9L2J82n8CvAb9r9/zt/eHcYXX3zBF198yfQdFsjljZxaMprZxtfw8fHBx8eN7V/8gh+ML7Lly9f4VvcG3urrPmyZ8iWb7OIJ2j+euUY2ze+JN+awa8zbbfB78WtjytSkUpF0egpTt5pS23if9IR4UpITifR3ZtGIL9gdJCHZcz9ff3+c5k6dgvwIT0LT0zmz7Cvenb6QN98dh1e25g0rnkaDvvSjjfATnlX2dpMDrYSfMPPYVFNOZmoSKenZVNY9fIdThF/vmoWwcFR4r3nWvs87mLnHmUHzvKqzYa9KVse+GR/zrc4GDAwMWmw3NxxvsujdVxi2YMfD67sPYBNVgNPG4eiccUe9H4uylDPzPm2B33ZeWWRJa80quKXD5FVnyA28wNxx3zB74RLWbdRjwqefYxAoIcZ+MxPXWnQUX/3MbyQvfryUmRO/Zset+EeeHXZ0/qzOtA1+zYvuLcguTuuVZFoJv8bKLE5umskbr73GabcITLboYZdSo65YIvx6VR/Unq28TDqAb/3ZuQivtg2Wv87gh6KJ86vGsPBK644nMpLcbhCdGce+b19n/MGwNpilhXqTVFJDzJnZTNlqjlT4/ktdOptHvtHW8/v1sN0UqXt+Svx3DWfu3sucnvEnvtnmQL1ShbyhEr0Jn7PLX0K633G+nGVI82ZYckKOLULnuA1HlwrD3krS3U7y139Mw6dysA16mzeV0KZhr7CJhLCzUFhK57vGdKeuah/8lPc4/sNIFm7QZ9H7v8HYKQ63Y8sYNmIRUSW928z0eR/2tlYYYcJnq8kiNQDn7h+BU4hVr18ibw27L347hR9K0r1MGPnJSNbuO8GRnUt4640vuRZeQr7HIUZ9/Dnr9x7jtOEKRn01B9f0Mh7k+bB4/LesMjyJ0balvP+nF9vg9+Kr77N0qxFHdukw7NOJ2MVKCD4ylfeGz+LI2TPs2/gdH/39TXSsM2goTWX7/HFM33SYk4f0+GrYGH4KSOFMy2yvqrGIizpf8Nn3ZygYZDMe2tbze27hpyq3ZsbwhUSWlHNqzIsYuxagUpSiP/VjbMN7N9srwu8hmoKT7qofgq8/M2fQrfNDdp/kyCjKah/vRankDRSkRWJ/7TJXbzoTm3mPJsGZspGC5HBsr5ty6boTcdklyIRV0Uo5ZblxOFy7zG23QJLiY8gsl1FXnk9sahaRXnaYWTkSl12q/kyCsu4eYR42XDG1wicqhYz0VNJL6oXthKguycbP4RqmFrcJSy6kSSmnJDuFtNLmTU6bKnKIiUujWp2gh1o/6yMRfmvbiuBf2o4G40HdXRYOH49rQjYnvn2Rg45ZVOa5sfCLL3BLqu7VbK+wO+4+8/UUlucNqpwrpY1I75fSVFE8YFYhScfwwjJCw+wGLM7W/MkelCMMScS/gVFAhJ+2wE/VyJ0TK/l27Hg+e+k/+OTbGYz+6B3m7bamtLH3r7cJO+EOlj+VXEZ5qCtpZzcTs2MyUVvHErVlzICZx8YRRA5gfELeoreOJc5gJplXdlOVFCJCcAAqowg/bYGf8JapUsa91GAunTzC0dNXCEwvRd7yYmdvJjwGoJ71KIo86+MEL/onifvmUu57g+pYT6rjvIa2xXhQ4mJC5KavCNX5kPJw9x5pJjruuQIi/AY5/GQNRZzduQIdHR2NtnHXEVLLlL0a9va82vSPD5VSQYHDecKWf0ix03mkkiRkhSnPlUklyeSa7yFi7RdUJYf2j9BiqGoFtA1+wqcjknKjqawu61UJas1sr1JeR1ywF3fv3tVofsFRVDb0ftjbKzX7yHNjqYSY7ZPItTBEWpD4XEGvPeQbc2JIOvAdcXtmo3zC9zj6SPbnNhhtg19fFZTWwK99hlUKGVVlxeTl5lJV38iD8nJqhYVa6iGxklj96dyP7d0aoPbxDfRxZbQP4Ss/pSk3rlfga8yJIs/fGuvTRlw1MSEuzJ8Hucm9CrM9nAbi+J67qXr4W50RO9DF8NzEJ8JvkA97H9ZEFTF2h5k9eSwf/fV3/OgcyqlFk9ExdqBc2vsPGD2M59kd3fO3JW7n5N5BSpLM3SNL+erbqezetZ3DusuY9MGb6B27zoMC7RlC1yb4EbL0PSpjfJ5dgQzxmEX4aQv8pJEs/XI4N0MSOTr6RYxd8qgvcmHWJ1/glty7beybZA0EJd6ltuHZvs1Q4mNNvMH0XsFPWhCD3vhPOeN8F6nwvFCSxH3XVYz4ci4picIzxEQK/W9w5Yghri4e1KqBmERptDc5qXHE25zmyrlL5Ga1gjKRVOcLXDlxFP+gsOYwC1OQ5kYRdesM547+SHRERPP1vDiyQ70pjbqFjZkZ5ZkJT52XupQgQpa8S0Xk3SGOoGeXPRF+WgI/VbkV04d/T2xp5cNFzsoy9Kd8hG0vt7QaLIuc+wJ+MkkCp7//nFHz1+Fwy4r4YF8e5CdQnRlLkySRiPMr+PqzYegsXsj0UZ/xg/45qgsiMV0zhveGf8HMaTNYOPptXnlnFuHxYbisG8YHn41j9Q/TGfH6yxict6M+x5cTC4cxfORYVi2cxPBPhnPc2oOGOBe+/+INPh4+mu+XriYjMrQP4Of57OgwxGMW4acl8EOWydYxH6J/1ZlDo19g341w3M6s4JNPZxFaNDReb+sT+BWmUBpqzY/LJ/PZP//C3//2OiPHzuKWqy+NufasfPcVDl60pzI9ihynY3z+zjc4JUZgunoUb8w7TlluMg2JF5nw+99z2d4WvXdeZOK6U+SlxZDvfBpPD2/Kb63gg3cn4BsZjQBb36NL+fs3m8iPdeG7T95hi0MEjQVJCDO3T/t88GHPT4RffzFYhJ+2wE+9pdU1xr33Ci/85jf85oUX+f1rwznhXTBgW1oJi4+byoso8b1N6pmNxO6aRsy2iX1m4Wu/6PWwVyaJpzI1isaCFKT58aTfMWHH5H/wt0+mEO1pzIf/+1/59W9e5Lf/r8V++09OeYViuvorxhvebYZV7m2+f/W3nLMLIst8Fe+/9CIv/u4Vxs5egZd/IPF7R/LeeF3yWp4hFjka87fXJxMQ6cJ3w0Zimt46ZH76XwF+Qd/9g8j1I/tM37ay2jGZlKMrKXIzo7G8CKW0eVuC/oLMYA1X2+DX0FTH/msbiUoL6pWk2jfbq5QhlStprComNtCFS+cv4ZlY0rZVUG8WOXdn2Nt4L59siwNEbRpN3M4pZJzZQK75XvKuGfaZJR38vtfwa8q+zbrZ8wmPinzY68q1Z/qnn+DpcpgJf3qZU9dckMQGkB/mjr/9bQoyI9Xwm2Dk1RF+1u6E3zYnJsgDn2snOLj4U0bN2EDMkcm8PXwpKZlCzy6Z1Os7ePX9BSREC/AbhVnm00OvtacowC940ZukHtXpM33byspiH5nntxC/ZyZhqz4j4+JO6gq092PeT0sCbYPfc7ixgZL80JtM/ugf7HatRFmXgv5Xr/DCr3/Nb377D3bZZqj3ZOtP+EmrK4ndNZXw1Z9T7mtFY1YU0vy+X4dXaHuy1/ATp0dw2wAAIABJREFUJjwOzXyXYbM3ER4RQV2aL/Y7RvPJqAWkJIZxaeZfGDFvK7lpsfifXME/351GWFYn8Ltphe6Hf2T2tguUZ0XgY/AVo2ZspDj6MpNee5kdp62oTvdCf9K7fLX5MrVxfQu/kMXvICx5aQViX/4K6ygbs6OpjnZXz7CHr/mc2tzkp+WIVvoT4TfIh73yOglbZoxkzZHrpJfXE/6TDr/48wTcMirI8zLm689nE1bcf8/8hJfuo7dNJNFwHnUpwf3SEFsbdV/ATwirItwGo6UTGfXJ+wz7+GMmzVyKm28ITYUpVMXYsGfht3z+4Xt8NXoy563dkEli8Di+nj1mQc35y3Pn6MKpuPhEUOp+hCVjP2P4xx/w7YQ5OHgEqMNJsTZkwejPGPbxR3y/xoD0lDiaUnz4ce167ub0Tc+vP+HXqrnwW58WSspRHSLWfUltdqJWguxpEi3Cb5DDr67Uge8W6FFYrUDVIOHA7I/5YHtw8+aRqgp2C1ta9XK2t0naSECC+2Mbdwq7qmRc2qV+1aomzrtfwSc0wkK73vf82hq1JJEHqaGUJkfSIOkII2leHGWJIdzPim9butLmT8PrdA050ZQmhVGd134CI5m6zEjuJUdQ3w/rB9UTHkLPz+Nqv+su5L0hI1z9LnXqqfUoZc/HM0ARfoMcfrUl1nz3nT4ltUoa8sOZ9vFH7I9t2WRcXsi2iR9jH1XeL+/2CsMg4YG7MNR9Ehz66l6x0zlito0fkLj6Ks39FU517F31Or8y72sDpkdNvA9hKz99bp7/ifAb5PCT1mazftZ4Dl6+zUWj5bw3ei05chX1lfncPb+CYSOWEVum6Bf4FXteI3bHJGS9WLLREzhUBNwifNVnVMd4DliD70n6BtJtwY1DhK34mJq4lkkYDT3Svk5PU24sKYeXkHFhx9OMIrXOj7bBr1HawFkHIxJzonqltfbM9qoUpPuZM2vUh3zw5QwsAjNRKZow3TyGP/3jWy6HliDsatWbCY/OlEw7t5XsS9sHDEQNmRHE7ZpKotECmvLiByzevoZIb8OrSw4kdtsE0o6vHLB/PK1pzrMwJHz1sM6qxJC6rm3wE77cVt9Yi1zR+nmppysO7YGfpvyplJRJ8rnf+HDX3/6AX/y+eRTanRpQCJV6XCVi9TAyftqk7gFK85/+FbHWBq0tv43ZMTyIcCXZ+AdidMdSmxQwoNoLOgmPHoS9FOX11Zpq3pC6pm3w6yvxtRt+GlToD/jF7Z5FkeNPA94AhQ1MY/TGEbXxK5IPfk/q0eWkHlsxtO3ocvWMevjqz0jcN4cHkXcGXHcBfsKGqgL8ZDWD41vFGqp6n10S4TfIn/l1t6R7Cz+hIjz6MeRnBT+hEQo9vhLXCyQdWKgeCsfunMJQtjj9aWrI3w91eCbQa+0dt8GvWoRfd9uetrkTe37tSqyuoQYz91OUP7jX7io8S/i1Nkbxt+Mynf7WQ4RfhyYwJE9E+LUr1s5ebxPhN7Dg6W+wdSd8EX7tGsYQPRTh165guw0/SRSpXo6UZ7Vf7JtEsosp2Qmxz3S41p2GLbrpGuYi/No1jEF2qFQpKarIp66xtlcpE+HXTr6u4CfNjyPAzJgz+1fw5d9eZf2WnZw+YNBs+zcw9r03sbnTv6++ieDqGlx9oZEIv3YNY5AdNjTVY3R9E1Hpz9uuLl0URG8mPLqCn6wgHs/jqxg7/B1e+s2veP/DTxg1/FO1ffXlcFbrHaGgQ29wYBpqXzR2MYyOZSXCr4uG9gxvP4e7unRP7X6FX+vbBQVBOJ/cg6PVNbxum3P3tpna/JxtKRPhNySG/SL8utfenoUrEX6dqD4g8JOEc3b+u/z1L6/xyQfv8mmLfTtpLqFRfb/Fldgr69grGwg9RPh10sAGwWURfp0UQm/gJ3wMWVKWg/SR3Twem+1NPsH4N4bhGhDR415OVXYUidFOnLfewfZzC9lyeo5oT6nB1jNz2HV+EdfsjciId6ehD9+C6Uv4KZVKHjyoJjU1jbDwSEJCwwaVBYWE8N2BbzC3vzRo0hUeEUVWdg41NbUI+rX/E+HXXo12x72BX7tgOhw+Cj9phjmLv/wW/4iefVe3JC2IYxYbWHpkHMY3t3Dd9ww3A0xE64UGFt6nMDBbycpjk7lis5ua3L6Zbe8r+EllMvwDgrC4boXF9RvYO7rg6Ow66MzM9hI2jraDJl12Dk5cuWrBdStrYmLjOgBQhF8HPD08GQj4yQoiMFs5gk9HTsJozw5OGO5U2/mTp8hJET4LqXmYdujqGpb8OJ74ghDyq9JE60MNnCOvM9twOKa2e2go6P170H0BP4VCgbevP2d+MiE0PIKi4hKKS+6J1k0NBL2CgkP56dwFYmLj2xp5k6wRc48zpBUktF17mgNxqUs3VHu05yfL9+H8mtksnT+rg61fv5XEeM3wCw22Quf4ZAJT74jQ60Potf8n4hRxjVXHp5Cb1PsNZ/sCfgUFEi6bmhMVEysCr5vAe/SfgwDAgMBgzp67QFFRcTdaa/edDEn4CbCqjPbqvgpduHwMfp307Drr8TUWJLLuxHSO3N5GTkVSv8AvrzyWkHA77LwciJEk9Esc7UHT/jj7XixJRUnkVyaRUhA7oHF3SEdFErtMdbjhdKjT3ndnZfTo9b6An5u7J04ud7oNvsK8bNJS09TPBoXng82WQY6kuNthNMOjhOycHAqLhkZPs0BSiKmZBXe9fDoMf7totl3eHnLwQ6Uk+YgOEqcLXWa+uw40wa/A5zKbpg3jlf/3a4yvWnJ07hQOm7lQq2Er99KMEOYYfsHtoEv9AIYkogNPM/vrd/j7W2/x3nt/59W3hqFv501GZc+H1pnJ1iyevQbPsu76TcJqz1henHWSjOCzvP7K6H7IY/fSknc/lUvuh9l7admggN+lK1cRHtw/2pvRfF6M7/ZP+M9fvMCfX3mVV19ttdfQv5FAUQ96TpK8FHTmzMQ9JqObcQ/wUDwngAOrVnIntqjb6RMeH9yysaOhoaG7zbZLd0q5lPRzW0k7s6nN7b+0HWnpQZG7OVGbv0Fe17O92JRKBRXVpY9tkvgY/PLd2TH2Q/T2HWDDB/+N0VVnIi+t56sPv8I3NOaxhleY6q+Gn0O4eZ+DISP2Al//9Y8sP2VBXEkyuWUxOF1czv974S1Mwpp7YVlFIbjfvYF9oDf/v72zgI7qWhfwu+/d9661SLmUSynQlkKBUqBIaJAEdyvuFCgULcUdChQr7hYgeHASSAiBuLtOPBOZOAlxl++tM2FizJQQJmlCzllrryOz5Zx/7/3N/2/1TygCiTTeFc8wV3x9DXnw9A72Ug/CEyXY3lrNR82Hcc3XgaAoZ5z8HbB3NeCJuwPhSX4ESM3QN7rKExdLQhL9CE9SDb/QKGsMTW5g6GxNiNzU9cMv2AK3QGuemD/AKVKidnnoPj/MhlMzX8uD8prdm+7VofmdPquDi2tFTd4i+HUdtQ4rHz8kviUuJCKa0EAJnv5heDpY8MDgKe5BkUTHRBHg5YG/VPYKItEE+fngGRDKc2Nj/EIjiQgLwtffF8dnj7Fy8UMWHUuIjyOPDR7x3CkAmRyqMQRKvAgK9MfiiQFGZg6vtM0YggP88A2V4WZtguFzB6TRMQR4OWCgb4ijb3gxlMNDfHluaIChqT3BEUWaqjTIH9+QCLzsn2NgZI5veCzR0TJ8TPfw3eeanHvmW2H42dg5oHf7Lunp6WqjUm5aEt67ZhF+/0RxnLUefhmRQTgv74ffkWXkZ1f8nyIxJZ4lRycSGhNYLAzhojz8st33MEZjPK7e9hzSashvl03JiXRhx8gO6BlYvlbxIn2L4KfveEXNld2Hu7tG88HXP2JVWlNLcMbU4il+CX6EBl9j/DeNaPxJUxp/+Hf6LfoN9xg/HCzXM6hHR1o2aUqLFh/TsO1o7kksmde/OX/5y3/Touc4HpxfRsNmX9O29X9orLEQN4cz9Gv7Mf9u+RmN/92UkXuuEaICfn7OJ+nV7F80ad6cjxs0YuhGHSSJnhwe3YDmbdvy5aeNGXfERM3y8EeAnzCE6E1we9Pv6oDfqTPn36K9rwh+GuN/xTOyvCYWxd31I/hcezTffNGclo0/oLXWXCwkIVyY+RXTf9UjNDqWqCAnlg7VZtFtd6aNGMpjlwCs7qylZ5vPaNK8Nf1nbMFM71c6/PtDmjb7hA//0ZD5Bw2RRofx6/BmdOnUmWat29DkoyZM2P2A6OgQTvwyif4je/NZsxZ83LAR3edtY3jXL/myaQM+15zOcy8ZESHOLBrYhsbNv+SzZk3RXnSMiJhIruycw8ChvfmsSTM+adyQRt1WYONjwezOzfnvv/w39TXmIaugaW5r7yiHX9ob4CdsPl/RIzXEG4eFPRAgqDhqPfyED0l0M8d19VD8ji3npbsFWXER5CTFk5P8QqWLlfmx7MAYpDFlN64uD7/c4BvM1eyBzu277OvTgO3nDJA82M7Ibr14au3yWsWrMvglOnN4YW+aTj1OkLJOhAR7fp/agW9n7sBRJiEk6A6T+mmw0+g59hYrad9uIHckHoSEGjBDsxWTL9rj9mgz//5sLPrRPvjeX8qHH7XjpK0TfpFO7JrdjfHbThCY5IeT2X66tGzPTgvH18zesBgbtkzvTa8NF3CN8sLb5RTDurTn6LPnHBj+d777YRvu0e74xQiaY8VM2or6q+3w+/QrLeYtXcZShVt+CLuIKG6vGUj9NuPRdw8lMtiCiZqdOGbgjMRwEwPH/Ix7cBSeZpfpN3guVsE+TBo8gEfOAVjeWk67brNwiYglxPUREzq1Y+r+JwRFRuNltBetnkN54OjFRu0GDF1+EmlUDKaXt9BGewk+UcEcWzKYJlobcJBG4nhqHh/Ub8Ohx15EhtkxrWcnTjxy4un2AfSduhXnwFD8XQyZ3Ksnqx4HobttPM01l2AZEIXUWZdu/6rHLoMgwpyP0ru1FnoOERXW/P4IfsIIjzSpD8EXt+GxbZKCY394zooNw3v3DwSeXQ+FhcV+3wv4CV8jCMT/xCrs53fDdc0w3DaM/sOFQJ3XjeDOL72IlHoUC0O4eA1+kV7YnFxI745taFn/r7Ro9RVtWn7J4t1XSAx7fZhLlcHvpQvHl2rReNIRpfALC7vPhG9as+SBWzFkTq4eyviDt7G3WEW/cSsIiPcjPMGKTaO+ZtihZ3gYbaPx5+MwjPfH7/5S/t18NI+j/QlPMGGaVkdOPbcsiivBkrXazfh+/73X4Bcc8IhxPZrzaadv6dajC916dOLTJk1YpnNVDr/xu66+MoPVCz4BkLUdfu2153Lpvj4PH75yBhb4RxbBr9nY4wTLzdQI1o7uxu47tkQEuzBn2DB0Hf0xOPAD49ZdIDysNPx+of/UvXLz1M9Eh6+/GoFesKIjJJzlo3qz19CKjYM/Zb2Omdyfu9F5OvWZg4NMgN9QtLZay5+HPthI02YjMQwUwoexYuS3HLhnzNbe/+Tjlm3p1r073bt9S/NG9em2zgTdbRPpu8qgyDSOMGPqf/7BppveyNxPoNVGm3suFW/zKw2/3LwcjBzvEB4bTG7qS6TX9+H0c19sZrbDbcOYMnVX2c1LLxs8tkzAffN4MqOlZby8N/BTfFV2YiyxVveJMr5C1BNdlS7wwUn2bR9CWKSfIqj8/Dr8BMBJSHDR5+6J3Vw8eRw319c1PoVpVWXwS/LF+MQ06rWeikmUbzHgwmJMWDXyO3ZfOcG4b1qx+H4J/I6vHMyEQ0XwGzhpNYEv/AhPtGbz6A4MO2jyOvxajMdYMKkTnjK1T0dOPrcoSueFOau0mjHugBL4+T/i+549WPP0MaaORpg6GvLE4gGOUns5/Cbt0yNUzRqfQjOs7fBTZfYKmt+nk84S9gp+68YUwS86KpwzqyYydu9D1o7WYP89RyLKwW/wrINyDUsOv9YjuBmsMKvD+HmEAD9rNg5pzuZLlmXgZ/8KfoN2F3XahD7cRLNPx2Akh2c4K0Z24cC9J2zRasCUDecxt7LG0sqKZybPsPQQNL+JDNpgXKTdycyZ9ol64CcMct56YSHWD4/I2/ZtZrRF4RwX9yL87jEl7ijS63tx3/Q9Dgs08No+ldzkhDL1XLh57+D32heqePDGVV0UQ1xkDljpHuL6qYMl7vQhbp47xuN7d4kJLav9VR38/AkJuMHEDp8wcfMhrEM8CJJZc3H3ZBp/2htdF3OOzP6WTpM3YBboio/bZcb37cEuY1O55qcMfl7G22n86TDuRvoVaX4K+CV5s/fHHoxZtw/XKG+sDXfSuWUHdls6vab5CWbv1hm96Lzgd6xC3HB3PM/C2ZO5bm8hwk9lr21Rm1/nYSswsnfCwbHEeQWEyM1epfCLicH5zl7aa/Sgd69pPPMROjnKan4K+EX6mjK9W3sm7LiDV3Awdne306fnCPSdvCsPv/u2PNk+EM3Ry3nuGYy/izFr5s3joGmwSvhFep9Gq5UmN+3CK2X2CvDbofMTlqd/KdL4SsHPfoGG3NoTLL4y7uQq+VakobcOkuRjT0FOllIKiPB7U5tf+DM2D2pF/fofo9G7D327tKHBP/9Okxat+Pw/jfi05xJ8g0oAWJXwE3pg/bwvM6nX59SvX4/6DerRrPMgTju6EfrSH6n0Hgv6t6Rh/Xp8WO8jxm08gmesrwr4PSPE5yKaTT+kZa8x3D35E/8uhp8/ni66jO3Rgg/r16dh0y/54dQdgl4q6+31w8/tAmM6NOLDeh/y4YcN0PppD04x7iL83gC///3r3/jXBx/wQSk3dvNtbqjS/GJiiQo2Z0b7jxmw8hahMbEq4RcdE43v02Nof9GIevXq8WGjL1l77jmhUWHvAD8HIoJdWT22Cw3q16d+/UZ0nbINH1mkSvhFySyY0eYDGnSZWakOj+LpbRJzsuJl+B5aXKz5CU1bhXm5yl1+nnxrW6XUe/WwzsIvJT2JvTfXEpUQUUY+r5m9UgNWDtTkkr5ZUeeGzJOAyz8xsP8cPBwesuLbBmzRMSHnlaYY7WctH+rywEG32DRVmGnqOoe98MTF0xgzV3P840pMYCH+sBdeOHmYYBvsQVgFzM3gMAss3S2KTOJy/sPiXbF1NsI51L0CcXnj6P4EmwCXCvhVT/vfpWeH2HRm1mudToomiIqe1dHbe+bcBZxd3Sqs3Sgf/6cwUdV3Foa/ONg74hP6toOn/+AdIsPxcLTFztmbsKg/8PcK/uHBPtg5ehS1B6r8QyiJx9rGjlu375GekUEx/Hwt5PVU6PB44fQUr99myNvyylTet7yps/ATlsdOyUhCWN2l9FEefjne+xndZTj27qWWr/I/w8TOvTB19MB4TgsW7dUj+xX8kqWuTN2pzQWTA1UGP3VBtDbHE/rSl0P3N7P/ys81An5Xr+thYWVT4+BXXZBVZzr3H+gjLHYgLBRRHn6Kuiq04SV5v9vqznUWfgohlj+Xh19uhBlr+7Vh1qq9+DmbEWh+k30TOtN9+HIcnpxgZMtG7NezLtb8BG3j5M11bLgwD98YFxGA5bRJdQHXL8aVhUfG4mivVyPg5+rmwfWbt5BFVrxXU53AeF/i8g8MQhgz6epeNAojMzudbbpLcPKzKl9V3/lehF85Eb4Gv0hfoiwusXPBeEYM6MPQQYNZuGIL5mbGmJ3ZztY954mSlt7cyJdof2sWHxrDeePfCU0sa5aqq/LX5Xh8opzYdXMFG0/PIiHYsUbALzk5mWs39NA3MEQaGiZqgBUwb8sDO0Qayt17D7l+8zbp6RnympmXn4ezvzVxSepd6ECIXIRfBeAnaHNZYZ4kB7ogs73F4cUj0NToyzMbD7JlJZ0dpduYLCx1mbNvCL9eXYpDsKmoAapJAzT1fsCqszOZuXsAvu6PyYks+8dTOg8qeq2ONr/CwkKio2PkK5JcunwVod0qIDBIvkinsFCn6FTLwM8/gOdmFpzTucSNm7dJS3u3ndrKVWmVtyL8yonmdc1PQoKHCdY3DrFxal86fPE5PfuNZNfhc0QFqa542TIJZhYX2XJ2DvP3j5CbaEuOTUB0lZfBgkOjWbB/BMJaiQEeT95Z41PAUR3wUxSjxMSXmJlbcP3GLS7pXpUv0iks1FmT3Gmdc+hculxj3kmQ0029O/KFYJOSkhWirPKzCL9yIi6Bn4RYuzucWj2dQRrf0EtrCD9P6saQqWsJCaz4AprJUhd8XB/hYHcTO9vr2NmIrrIyENr3BOilhb3dqtoKyKk6qxN+QnGSL2WfkkL8ixfExccTF1dzXGxsLHuubMDZ277GvJcgp+rS9kpX9zoLv/z8PCLiQlTu4ZHm+5jv2zagg/Y4Luo9JiXclzjdSUxZuJsEJUtZqapY4nPlzQI1SS7qhl/pClbTrq29TZi4vReXnx5DGPFQl486C783zfDIDLHlwtrpTBw+gPHfT2bv74cw2jWCST+J8KtJ4FLHu9QV+L1IjmX1mdly+AlbLITFBtdl9tXdDo83wU+oVNlhHrzwtsbl9n4WDe9Kk3r/4PPOgzmn95g0xfQ38ay2tjd1gKwycdQV+D2212PyTi05/ATtb925eQjrWtbVQ9T83jS9rRhuPsRaXWH/kgn06dgazcFTcXQtNfC52F/NN/MqA4j3OUxdgJ8wo2nx0fHF4BPgJ7jnbgYIPdU19RA2MLpkfAS/8JJNjdT1riL8Kgy/V1CTefPCzRj7R3pEB6ru7X2fYfG+fVtdgN99q8usOj2Lladmyne+W3RknPz+xMPfSM2svh7WtwWXqhkebxuPMv8i/N4WflWp4ckkZId6kC11I6uOOOFbs8M85cuG/VlQrQvwU1T+/IJ8ZuwegJ3EVPGoRp9F+FVB9lSkza86K2OqpxlhV3bgsXE0zsu0cFrau0445+V98d4xFdndQ2T42/8p7Yci/KqggqkpShF+ahJk6WiEOYMPbK7yMvVF6cdKVnKu+ja8VPfnOP+sjcuK/kTePUSyizGp7s/ee5fi/oyXDgZIL2zCceF3+OyeRXZ4xcdQquvPSYRfmSpQo25E+FVjdgj7AkQ9PFltGkiGnx0em8bgsXEMad6vb4ikrgpe0+N56aCPyy/98f19Hjnh1duRFPPoDLazO5TZ3KYai1y1JiWavSXirrNtfiUiKHvls28eETfffSPsisImzkQXx8U9SfO2qDbgVvTdqtWfTELUw+PY/9iVJHuDapWFYHLbzulIQU522cLwHt7VNvgJFtrOq7/g4v9uy1cpy0oRfuWkEnp9L/6HFlZb5Qs6veqd0ssKcSbc2ZzQMs6CqIAi8zE71A676ycwNjQixU2fRxfP4Onm9HbfJ/MhM9zn7cJUomNI0PgE+EXo/V7laRWDXSYh+Ow63LdMKFcS3s/b2ga/qswFEX7lpJvg8gznZdpkBjhUSwX0P7KYEJ2NlUxLgvTCYv73r00ZPHoEk8cq3Eg2XjAjJ8KWC9O60qbXOHZvWUSfj5syYuZSHlm+jXktIeDebr5ffISMSgCtGDIVDCu0e4Zd3VlJebx9+2xmoCPuG0YT9fRKuZLwft6K8CvJVxF+JbKQX2UnxuCxeRz+hxeRK6v6cXxCOkKD/9tCosh/Efz+718DMPd3JzWkxKWHS0hwu8aPnVow6deb2B5fTP0PNLj0/BkpoT5kh7nicu80187rECQp1ckg8yD4yUVunT+Dj5szORHuGGybRKuhK5A42ZEp8yXd8xH65w9jaPisGIjZvmaEOJhgcf00NjaV/+NwWTmQ0Cs7KimPt4df5L2juKwcTG5KYrmS8H7eivArydc6Db9ClI9sj7W8h/28b4nWP0lORNWae+qBX39MPB154atwzqTLfHny2wRafPA3Pv6iA13ateSv/1OPzkOn4mB2n9/HdaRL956MH9gdjV4jMLKwJTvUmSsrRtLum+6MGqhJ2w79uGj0gHkaTfh7w2ZMnL8di0ur6fhpC/po9+G7ti0ZOncnoYHexOzX5pPmbRk0qBfzlh+tNLyqC35CviZa35Xv8xxpeJHCOjLJX4SfCD/Ss1K5+uwEwmTv8kdBXi4RD0/j/HNfwq/vJjvUvdKV+U0anTrg97//04Q+A/sxctArN3Q6hn4+5EiNWKnxJYsvOpOk/ysN6/XHNMgLn6NT+KLrNGyd7EkOdODa6uFMXHOKRNfzjNEegqm9EzmhTjzes5StOk+wOvwj7cbvIMnLkKX9ujPv1COSIyQkOV9hZo92nL5jIodfx0E/EuTvSbq0lCZZQXNXIafqgl+U/kmclmkRpLOZvLSk8kXgvb0X4VeStXVW81M1yFkhGmGXKGHTc7s5HXFZMYC4p7pVogWqA37/969B2Egl5MhKnBwmYcas6tGapbrupBnu5KN6AzAPcUXvx27813/9F3/5y1+KXfMR64l6uoKhIxcTW2aRVh9sjy6g3YTfiLO7wXCNgTwOUZiX3lyY0YVVx2/I4Tdg5lZi33G5r6qEn6DtJVjdxn39SGxnf02o3gFFdteZswi/kqwW4VdueluJaIDCQlL8nAk6twm39aNxWKQpH4vmumoQ6nJC7+a7t/kNwrbc5ukq4Sf14PHPvfhs0GrcHcwIcTJDYnYXRysrYi23MHTIHCIDhHF2EmKtb/PY8BmWr+CX6HyHcRp9uOj+qi1U5szvo75m67k7cvgNmrVNLfBzXNhDbfJV5JMAVWFIkeuaYfgfX0GimxmF+WV37iuT9+/pTW2Dn7AwrCw+VG6pqTtLRPj9EfxeSVswg7MTokkP8yPZz1m+C7ywE7w6nDCu8J3h989eXDG6j4tJiXO1syNHmeYnlRD/cDVtm7bn8LVHpPo94/cZfVm07xqpPo+ZrdWN7bqPSPA2ZNvorgzefBeb4wv5Ysha4oMsOTD5O74ZtxEvD3vcdRaj0bYb900d1Aq/wHMb1SLb0vmT7OdEWqhEvvF1Qe77P55PFShqG/wyczLYd3MdboH2qj6p0s9F+FUAfpXD8U56AAAQmUlEQVSWbgUCBp7d8E7wk93eQud2bfimnOsy8zAp4aYcmDSQXXc9SDc9Ru/uM3GSa4ie2Bz6gV7tP6fVZy3p9/18XFxdyJV543V9KwM6tuLLL1oxcMoagkN9iXl6nKGdv2TQhDVI7G6wYlAnvvq8JW079mTvxcekyXx5cX4a89ce5oWKDZ0UbXpvOgsamtDeKh5VI4HaBj9xelsVlIM3tflVQZJKo5TDT6eyQ10UbW+VOUtI9rMj3M2W1PCyQ3oyAu2RediRFqbo6ZaQIrEm0tuZLJkvORGexHpY8yK48h0bqiAoh5/+GaWyEh++uwRE+JXIUNT8/mTNL0R3B4EnlldZb7IqyNTU5w4LvyPS6GJJCRWv1CoBEX4l4qyz8MvJzZZvhiwMefkzj3gbA/mQGmGmQU0FUnW9V5zJ5aK5vRL1t+/8mXlck9IW4VeSG3UWfiUi+HOvsuIjcVs/Ct+9c8gKdq6zAEzzMpdPM/PcMY263CFR1aVRhF+JhEX4lcjiT7tK8rbBcZEmXr9OJtHmPuk+VqRL6oYTlvGKfaKD29phuG/6ntzUl++UD8LQCOXzdlRHK4zpLHjbQKqjq9G/1Db4ZeVkcPjuVjyCndQuVxF+ahdp5SJMCXCVzzYQZh0I49GclvSqVme3tDeO1Zym8I0C9F3XDpMPOM6MDauc8F6Fyk+0YdfaHZhK3zxPN0nmjaV3NBRm46R/jtPmCe+Udm0JXNvgJ8i1qjZYEuFXg0qtMOg2PyudvPQU+UT7nJREqsMlx0ew/dx8nNyNqyU9xTcJiwkI35qfnUHhO2+hWEDg4X40+6QVQ3ea8qbtuJ+fXsTM/RZALr7WBtx3q7mb+KiziNZG+Knz+0vHJcKvtDTq6LWwlP/ac3N46ny/1kqgMNWDuW0asXzrHjr3mIFtkgJ/hYS7PeXg9g2sXL2BC48cyUxxZf247/h2xE9cNgvEx/IBd1ySID+LECdD9m1Ywc8rN3LmrhVxmYXkR9hz9Ow9bl0+zOrly9h5+j7hSVm1UlYi/EqyTYRfiSzq7FXth18hYQbb+eiLObhG+7JK+2umn/VGvh13phNzB/Zjh44+Zo+vMGHAcE67Sji8cAjaP+zG0kfK1Q3fM/xICPE+TxjdR5v1F40we6TLFI32LDxpQ5L5Hv5VryVL9l7FwkKfhQO6se2+a60sLyL8SrKtzsLvZVoCK07NIDw2uEQadfSqtsOvMPcFp34aSLeNNrxIjMdq90ha9fwZSVoBGQZz0Z6wDVlGobx9z8/RAqeIHExOzGfaPnMoTCuGn921ZQxYdLnYZE42WES3/svxNNhNw8ZDsXhR1CtiumsSc449rZWlRYRfSbbVWfjVlBkeJVnx510J8Ft3bi5PnO79eS/xDimnhNrxfY929Bs/g5kzZzJj/EBafdaO02ZS4s4Mof/cY8TL1cCSRJTB7/nR2UzY/qTYU57nPrR7zsTh9i4++s9UnF9NCTb/fSpzDhsX+6tNF3n5ufJ9e+0lZrXptavkXUX4/ckzPKokV98y0tSMZDbqLOCele5bhqwZ3n0M1qM9eScJSUkkyV0it37WZNTGG2Q8W4L2mPWEpRZCQTpPz21ni34UT5Vofo63VtNnzukic5lCoq9Op+vgNfgY7uGj/0zD5T2AX0pGErP2DsIlQP0bAlVFacjLz5NPRohLilZ79CL8RPghFLBDd7awUWc+OXm1bMWTwmSOTenGzzqWZSpHmP1xNHpOxzfFj5Vj+7PktzPo6exj9OBxXAvIwObKCrSnbMHU1a/Y7E0OsWbWoN5M33yaq+f2MrTrt6y/6k6q+fsDP1M3AxYcHE1YbFAZedXUG3FhgyrIGdHsLStU10A7Zu0ZhJfUpewPNf2uMBV3S1Ok8Wll3jQ3IxF7cyvCswp5IXXjls4x9h8+y1PnYPIKC0mNkXD91GF0jLyR+TrhEJIBhbnEBjpzR+coh46f54mthJRcKEgI4slTVxQdyAlBrriHxJVJrzbcCCDZemkxB25vIr+gdqxlKMKvCkqWCL+yQhUGkq4+M5vd11eRmlk3xryVlcD7fSfsUfLE8S6z9w0hIMK71nysCL8qyKrk9JfsuLKcyBfvNqugCl7tT4tSkMUmnZ/Ye2ONvIIIjePiUbslIGzSJexT89D2OkuOTqh1YzlF+FVB+RP+CdMyUyl455kFVfByf1qUhcjipfx8Ygo/7BvKb9dWYOr2CEc/S3mjs7O/tXiuRTKw8X6GrvExFh0ex7Tf+vLU+QHCUJfadCjg5+gnzMZR71FnOzzUK8b3Kzahgth4m7Dr+ipWnZ7J8pNTWX5CdLVNBitOTWeDznxump0jKe3N851rYilOz0pj3bl5eIU4q/31RPipXaTvT4RZOZlykykmUUZ0YoToapkM4pKiSElPqrKFAaqjpAtNL9beJgjNVOo+RPipW6JifKIERAnUCgmI8HuVTbn5ubX6H7JWlDbxJUUJ1CAJiPCTrxdWwEObqxy4tQF92+sYOd4p45JSla/1JiyFX96v4t5OYkZ2rvKVP1IzUlSG8w3zUFk8vKUuSsMJQxiiXoSrDGfhYaQ0nJWnsXyAs7KAQhvRc1cDpeHsfVVPjQqQeSsN88TpLhFxIcqSkj9zDbRVGk6Qp6pDMOmEDhmFzEufrb1MVDbuxyRGKg0jhA+NUT74V+gg85a6qgwnTBFUdghlQMif0u+muLb1eU52TqayYPJ9ahX+yp99w9yVhhEe+oS6KU1LiCMyPlRlOFVlxNLTmNy8HKXhhNkipirKiJ2PqdIwwsNAmUTpOwplJKwa59qL8AN5j69QELdcWiwf6yY08pd2oTGBSjMyLTOljL/SYY7d34EwbUzZEZ0QoTLcQ5tryoLIn+mZnVcabvWZWQjwUHXsurZCabi9N9eqrHzhccHyAbGlv0lxffzBDlVJyQu1wl/p85qzP/BH80kvPjms9B2FOFQtZilU5l8vL1Uabv+tjQh/TsoOj2BHpWGEtKy8lC9YIHQC3bG4qDKcNDpAWVLyMZNrzvygNNyRe9tUtmXFJ8coDSO84wPrK0rTEh7etbykMpyTv5XKcLuurVQaThj2lJFVdgC5IhJhaNQ23SVKwx25u03h7bWzsdM9pWEEOQk91NV1iPArJens3Gx5YRT+xUs7VePdBG2gtL/S1wL4CgoVa8qVSgTko+tL+y19LXTtqzqEQljab+lrVRVdiEtoLC7tV3Gdkv5SJViEKW+C9qfwW/qsCupCWpnZGUrDvExNUKkJC+GEP5LSaZS+ViWP/Pw8klW84x819AtT+ErHX/o6K1e5Jia8wx/JX1UZEcqA8O2l01BcC5qTqjIiDMFS+Ct//sMykl19ZUSYJaKqjAjfpuoQlqYv/01F939cRlTFV9nnIvwqKzkxnCgBUQK1WgIi/Gp19okvL0pAlEBlJSDCr7KSE8OJEhAlUKslIMKvVmef+PKiBEQJVFYCIvwqKzkx3B9LoDCPjPQMcl/r88kjKzOraJ/cwnziIwLxkISR/pq/16PPy84gM0e9c1Nzs9LJzatA4q+/TgWeFJKbnUlW7Vg9qgLf8355EeH3fuVnjfmavIBbtP57Cy5LytX8jFuM6TMZj6g8YpyO8nXDf9Lgk4nYKB0SWUCUvS6LD9iSRy76i79mwHpDlI86q8ynp7BneHMO3pdUJvCbwxQkcnbJUIadjX+zX9FHtUtAhF+1i7xuJKgSfgWR2Fo4kPAyBdtdIxjxyymiU4pwlpv2gkBfCaHRiXLNMD83Gb1VQ2i78D4vM7KIdjPB0juGgtxMEl6mk5Ych79fIHGpuRTmphHmL0EalUhe0T5DUJhHkiwYP/9gEjOULc9VFn4FuRnIQvzxC4ogPadEG8zPTEIaIEHiH0JSVpHmWSh/hzQSY8ORxiSTm5lKRlYGCeEB+AdHkCGovIU5SN2tsZZmk5+bRXJaFjmpsQT6BxR/s7w0FOSTECXFN1BGamYWKWlK/wnqRsGpxq8U4VeNwq5LSamEX5Yxy2av4tGxNXzVtB4NmnzG4F8tSJDasnSsFl01teihOYANdyREeOgz6Kv6/L3xV/xy8jFGO8cy77AVGa669Bj4I9MnDERLozN9xy5g0/K59NLuQ5eeY9DzioX8DKwvbaZrxy5o9tSk56jl2MSWN5lLwa8whSsbJtKjR0+0vuvOlA06JGXnkxrpxupJ/enepz89u3dBY9R63FMKyXK+SHftiYwa9B3dxu3F+exSZk8fz3ea2mh07crYbQ/ILEjmzq6fWHjnJREO95i+cDFzB2uiqdGFDppTeCoVIFeA+7WVaGl0p5dGFwaPmcLUX2+92kekLpWY6v9WEX7VL/M6kaJK+L0ye90jMnHZO4opO/VIzcnn5rqRTNiiR1p+HpE25+nQXIvbIUncXzec9suMyMzLLjZ706wO8I+/fcyexyHkZ3kx86uPGLNNj/zCAm5sHsuI36x5KbVgVL/h6Pkmk5cVx83l/ek8Q4cXZfhXAr+4Bwvo3nc+zlGpZCUFs3LMADabReFh8BvTVl9CGPqcHWXBqM+bssEwhQyL3/nnP5pz2jaOlJR0zLf2pc3ITUTnQrStLh2+GMajlyVmb/Dz87Rp3pHDDvHkZ4SwSbMh0w9Ykhlxl/4t23HSLJSC/HgOzOxC+xmnKNdYUCfKTHV/pAi/6pZ4HUnvTfAT2vy8949m+p57ZBcksKz3J2iNnsKCBQtYMG8Cbet/wPKbfuhvHMXXvzwr0+YnwO/DhsOwTBLs20x2jv2ag499hFnaPD+ziMHrjQky/5VvWnfjx/kL5HHOGd6ZZu0m4ZhQYs6CAn5OXJ/WguadBjFHSH/+XAZ0/ZKua83JTX+B1eObHP19J6sWT6F9o3qsuBsnh1+9hqOxEXaFA8y3jWTW0aJtL/PDzBnYrh+XQl8Ut/kJ8Gs3aBXxcu95GC9qxdgtD/G/sYQWXVfg/2omnufj3QyYf1qEXzXUExF+1SDkupjEW8EvX8b8fh05eNUIR0fHV86J0PhElfCr99FEHOXAyGLX+I4cf+Inh5/p2cUMXv8Ef6O19P9+LfYOivgccfMMILVM098r+N2z5czojxm47Bz2pdL3DEvC6fpK2rTRYOGmfdw21mNBh0/5RQG/RlNwftX7Yr5tDPPPPpdndX64BYPb9eOitCz82o/aQtHkxTxMlrZm7OYH+FxeQPPuawl6per5GB9g8E8i/Kqjzojwqw4p18E0iuD3KSeso4mLi5O7+JepFJbq7S3W/ApzOf5jX+YffEhiVi4vpTbsXLMdy/AUHm0ezVcLH5FdWNLbK2h+b4JfrOQ2g/tP5pl/HFlZKbjfPcKW40YklrEnFZqfN15Hh9Nj5BrcolPJTYvmzun9XHWK4/qSvkw58Ji8gjxkTlfp1fQjlulFkW7xO/XeGX76pATq0f+rrhwz8iAiVMLRJf3oJJq91VJjRPhVi5jrXiJy+P3f32jRthOdOgmuM5rTfiUz6UbxUJcS+IHM+Q7j+3Sli2ZvunXqRL9FpwlLz8NbdykN/9ORVSf1ubmwaKhLReCXn5XI7V1zad3uWzQ1NWjXQYvdBkFkK3qC5VmigJ+EgtQAds7qR+euPej9XVd6DP8JG1k6Hve2063DN/TR1mbAqMlM7t6EcftsSVYT/DIKMnG9uY0hml34VkOLIUO00Jh7VuzwqIYq8//EPx18dkLzLgAAAABJRU5ErkJggg==;" vertex="1" parent="1">
          <mxGeometry x="-130" width="319" height="243" as="geometry" />
        </mxCell>
        <mxCell id="RIRY6-1L_K40St2op9BD-3" value="传感器" style="rounded=1;whiteSpace=wrap;html=1;gradientColor=#ea6b66;fillColor=#f8cecc;strokeColor=#b85450;" vertex="1" parent="1">
          <mxGeometry x="580" y="340" width="90" height="30" as="geometry" />
        </mxCell>
        <mxCell id="RIRY6-1L_K40St2op9BD-4" value="控制器" style="rounded=1;whiteSpace=wrap;html=1;gradientColor=#ea6b66;fillColor=#f8cecc;strokeColor=#b85450;" vertex="1" parent="1">
          <mxGeometry x="580" y="400" width="90" height="30" as="geometry" />
        </mxCell>
        <mxCell id="RIRY6-1L_K40St2op9BD-5" value="操纵器" style="rounded=1;whiteSpace=wrap;html=1;gradientColor=#ea6b66;fillColor=#f8cecc;strokeColor=#b85450;" vertex="1" parent="1">
          <mxGeometry x="580" y="460" width="90" height="30" as="geometry" />
        </mxCell>
        <mxCell id="RIRY6-1L_K40St2op9BD-7" value="环境" style="rounded=1;whiteSpace=wrap;html=1;gradientColor=#7ea6e0;fillColor=#dae8fc;strokeColor=#6c8ebf;" vertex="1" parent="1">
          <mxGeometry x="760" y="385" width="110" height="45" as="geometry" />
        </mxCell>
        <mxCell id="RIRY6-1L_K40St2op9BD-9" value="" style="endArrow=classic;html=1;exitX=0.5;exitY=0;exitDx=0;exitDy=0;" edge="1" parent="1" source="RIRY6-1L_K40St2op9BD-7" target="RIRY6-1L_K40St2op9BD-3">
          <mxGeometry width="50" height="50" relative="1" as="geometry">
            <mxPoint x="570" y="370" as="sourcePoint" />
            <mxPoint x="630" y="320" as="targetPoint" />
            <Array as="points">
              <mxPoint x="815" y="320" />
              <mxPoint x="623" y="320" />
            </Array>
          </mxGeometry>
        </mxCell>
        <mxCell id="RIRY6-1L_K40St2op9BD-15" value="动作" style="text;html=1;strokeColor=none;fillColor=none;align=center;verticalAlign=middle;whiteSpace=wrap;rounded=0;" vertex="1" parent="1">
          <mxGeometry x="700" y="490" width="40" height="20" as="geometry" />
        </mxCell>
        <mxCell id="RIRY6-1L_K40St2op9BD-16" value="反馈" style="text;html=1;strokeColor=none;fillColor=none;align=center;verticalAlign=middle;whiteSpace=wrap;rounded=0;" vertex="1" parent="1">
          <mxGeometry x="710" y="320" width="40" height="20" as="geometry" />
        </mxCell>
        <mxCell id="RIRY6-1L_K40St2op9BD-17" value="无人机" style="ellipse;whiteSpace=wrap;html=1;gradientColor=#ffd966;fillColor=#fff2cc;strokeColor=#d6b656;" vertex="1" parent="1">
          <mxGeometry x="520" y="405" width="50" height="25" as="geometry" />
        </mxCell>
        <mxCell id="RIRY6-1L_K40St2op9BD-18" value="" style="endArrow=classic;html=1;" edge="1" parent="1" source="RIRY6-1L_K40St2op9BD-5">
          <mxGeometry width="50" height="50" relative="1" as="geometry">
            <mxPoint x="680" y="410" as="sourcePoint" />
            <mxPoint x="815" y="430" as="targetPoint" />
            <Array as="points">
              <mxPoint x="625" y="510" />
              <mxPoint x="815" y="510" />
            </Array>
          </mxGeometry>
        </mxCell>
        <mxCell id="RIRY6-1L_K40St2op9BD-19" value="&lt;span style=&quot;font-size: 14px&quot;&gt;奖励函数&lt;/span&gt;" style="rounded=1;whiteSpace=wrap;html=1;strokeColor=#d79b00;gradientColor=#ffa500;fillColor=#ffcd28;" vertex="1" parent="1">
          <mxGeometry x="648" y="208" width="120" height="60" as="geometry" />
        </mxCell>
        <mxCell id="RIRY6-1L_K40St2op9BD-20" value="变异" style="rounded=1;whiteSpace=wrap;html=1;strokeColor=#82b366;gradientColor=#97d077;fillColor=#d5e8d4;" vertex="1" parent="1">
          <mxGeometry x="416" y="264" width="79" height="36" as="geometry" />
        </mxCell>
        <mxCell id="RIRY6-1L_K40St2op9BD-21" value="" style="endArrow=classic;html=1;exitX=0;exitY=0.5;exitDx=0;exitDy=0;strokeColor=#009900;" edge="1" parent="1" source="RIRY6-1L_K40St2op9BD-2">
          <mxGeometry width="50" height="50" relative="1" as="geometry">
            <mxPoint x="472" y="452" as="sourcePoint" />
            <mxPoint x="452" y="301" as="targetPoint" />
            <Array as="points">
              <mxPoint x="452" y="415" />
            </Array>
          </mxGeometry>
        </mxCell>
        <mxCell id="RIRY6-1L_K40St2op9BD-23" value="" style="endArrow=classic;html=1;strokeColor=#009900;exitX=1;exitY=0.5;exitDx=0;exitDy=0;entryX=1;entryY=0.5;entryDx=0;entryDy=0;" edge="1" parent="1" source="RIRY6-1L_K40St2op9BD-19" target="RIRY6-1L_K40St2op9BD-2">
          <mxGeometry width="50" height="50" relative="1" as="geometry">
            <mxPoint x="780" y="315" as="sourcePoint" />
            <mxPoint x="938" y="471" as="targetPoint" />
            <Array as="points">
              <mxPoint x="936" y="238" />
              <mxPoint x="936" y="415" />
            </Array>
          </mxGeometry>
        </mxCell>
        <mxCell id="RIRY6-1L_K40St2op9BD-25" value="" style="endArrow=classic;html=1;strokeColor=#009900;exitX=0.5;exitY=0;exitDx=0;exitDy=0;entryX=0;entryY=0.5;entryDx=0;entryDy=0;" edge="1" parent="1" source="RIRY6-1L_K40St2op9BD-20" target="RIRY6-1L_K40St2op9BD-19">
          <mxGeometry width="50" height="50" relative="1" as="geometry">
            <mxPoint x="686" y="344" as="sourcePoint" />
            <mxPoint x="736" y="294" as="targetPoint" />
            <Array as="points">
              <mxPoint x="456" y="238" />
            </Array>
          </mxGeometry>
        </mxCell>
        <mxCell id="RIRY6-1L_K40St2op9BD-26" value="选择" style="text;html=1;strokeColor=none;fillColor=none;align=center;verticalAlign=middle;whiteSpace=wrap;rounded=0;" vertex="1" parent="1">
          <mxGeometry x="416" y="361" width="40" height="20" as="geometry" />
        </mxCell>
      </root>
    </mxGraphModel>
  </diagram>
</mxfile>
